# xmcd CD database file
#
# Track frame offsets:
#	182
#	27352
#	44775
#	57752
#	82182
#	92545
#	106470
#	125490
#	144220
#	158640
#	185460
#	210910
#	227287
#	243337
#	262315
#
# Disc length: 3650 seconds
#
# Revision: 2
# Processed by: cddbd v1.5.1PL2 Copyright (c) Steve Scherf et al.
# Submitted via: CDex 1.51
#
DISCID=c70e400f
DTITLE=Rock Bottom - Too Many Bad Habits
DYEAR=1985
DGENRE=Blues
TTITLE0=Lightin'
TTITLE1=Stompin' At The Aaheim
TTITLE2=Ramona's Blues
TTITLE3=Too Many Bad Habits
TTITLE4=Set The Meat Outdoors
TTITLE5=My Blues
TTITLE6=Who's Been Foolin' You
TTITLE7=Ice Cream Freezer
TTITLE8=Person To Person
TTITLE9=Blues For Anne B.
TTITLE10=My Mind Is Ramblin'
TTITLE11=Snake Dancin' Through God's Barnyard
TTITLE12=Hadacol Bounce
TTITLE13=Boozoo Stomp
TTITLE14=Close To You Baby
EXTD=YEAR: 1985
EXTT0=
EXTT1=
EXTT2=
EXTT3=
EXTT4=
EXTT5=
EXTT6=
EXTT7=
EXTT8=
EXTT9=
EXTT10=
EXTT11=
EXTT12=
EXTT13=
EXTT14=
PLAYORDER=
